<svg width="800" height="450" viewBox="0 0 800 450" fill="none" xmlns="http://www.w3.org/2000/svg">
  <!-- Background Pattern -->
  <rect width="800" height="450" fill="#F8FAFC"/>
  <path d="M0 0L800 450M800 0L0 450" stroke="#E2E8F0" stroke-width="1.5"/>
  
  <!-- E-commerce Store Frame -->
  <rect x="100" y="50" width="600" height="350" rx="8" fill="white" stroke="#CBD5E1" stroke-width="2"/>
  
  <!-- Header with Search -->
  <rect x="100" y="50" width="600" height="60" rx="8" fill="#4F46E5"/>
  <circle cx="130" cy="80" r="6" fill="white"/>
  <rect x="200" y="65" width="300" height="30" rx="15" fill="white" fill-opacity="0.9"/>
  <circle cx="650" cy="80" r="10" fill="white" fill-opacity="0.9"/>
  
  <!-- Product Grid -->
  <rect x="120" y="130" width="180" height="220" rx="4" fill="#F1F5F9" stroke="#E2E8F0" stroke-width="2"/>
  <rect x="320" y="130" width="180" height="220" rx="4" fill="#F1F5F9" stroke="#E2E8F0" stroke-width="2"/>
  <rect x="520" y="130" width="160" height="220" rx="4" fill="#F1F5F9" stroke="#E2E8F0" stroke-width="2"/>
  
  <!-- Product Images -->
  <rect x="130" y="140" width="160" height="160" rx="4" fill="#CBD5E1"/>
  <rect x="330" y="140" width="160" height="160" rx="4" fill="#CBD5E1"/>
  <rect x="530" y="140" width="140" height="160" rx="4" fill="#CBD5E1"/>
  
  <!-- Product Info -->
  <rect x="130" y="310" width="100" height="10" rx="2" fill="#1E293B"/>
  <rect x="130" y="330" width="60" height="10" rx="2" fill="#4F46E5"/>
  
  <rect x="330" y="310" width="100" height="10" rx="2" fill="#1E293B"/>
  <rect x="330" y="330" width="60" height="10" rx="2" fill="#4F46E5"/>
  
  <rect x="530" y="310" width="100" height="10" rx="2" fill="#1E293B"/>
  <rect x="530" y="330" width="60" height="10" rx="2" fill="#4F46E5"/>
  
  <!-- Shopping Cart Icon -->
  <circle cx="650" cy="80" r="15" fill="white" fill-opacity="0.9"/>
  <path d="M642 80H658M645 75L655 75L658 88H642L645 75Z" stroke="#4F46E5" stroke-width="2" stroke-linecap="round" stroke-linejoin="round"/>
  
  <!-- Decorative Elements -->
  <circle cx="700" cy="350" r="80" fill="#C7D2FE" fill-opacity="0.3"/>
  <circle cx="100" cy="100" r="60" fill="#C7D2FE" fill-opacity="0.3"/>
</svg>