<svg width="100" height="100" xmlns="http://www.w3.org/2000/svg">
  <defs>
    <pattern id="tech-pattern" width="50" height="50" patternUnits="userSpaceOnUse">
      <!-- Circuit lines -->
      <path d="M10 10 L40 10" stroke="currentColor" stroke-width="0.5" fill="none" opacity="0.4"/>
      <path d="M10 20 L30 20" stroke="currentColor" stroke-width="0.5" fill="none" opacity="0.4"/>
      <path d="M20 10 L20 40" stroke="currentColor" stroke-width="0.5" fill="none" opacity="0.4"/>
      <path d="M30 20 L30 40" stroke="currentColor" stroke-width="0.5" fill="none" opacity="0.4"/>
      <path d="M40 10 L40 30" stroke="currentColor" stroke-width="0.5" fill="none" opacity="0.4"/>
      
      <!-- Connection nodes -->
      <circle cx="10" cy="10" r="1" fill="currentColor" opacity="0.5"/>
      <circle cx="20" cy="10" r="1" fill="currentColor" opacity="0.5"/>
      <circle cx="40" cy="10" r="1" fill="currentColor" opacity="0.5"/>
      <circle cx="10" cy="20" r="1" fill="currentColor" opacity="0.5"/>
      <circle cx="30" cy="20" r="1" fill="currentColor" opacity="0.5"/>
      <circle cx="20" cy="40" r="1" fill="currentColor" opacity="0.5"/>
      <circle cx="30" cy="40" r="1" fill="currentColor" opacity="0.5"/>
      <circle cx="40" cy="30" r="1" fill="currentColor" opacity="0.5"/>
      
      <!-- Diagonal elements -->
      <path d="M5 45 L15 35" stroke="currentColor" stroke-width="0.5" fill="none" opacity="0.3"/>
      <path d="M35 45 L45 35" stroke="currentColor" stroke-width="0.5" fill="none" opacity="0.3"/>
      <circle cx="15" cy="35" r="1" fill="currentColor" opacity="0.5"/>
      <circle cx="35" cy="45" r="1" fill="currentColor" opacity="0.5"/>
    </pattern>
  </defs>
  <rect width="100" height="100" fill="url(#tech-pattern)" />
</svg>